<svg width="527" height="164" xmlns="http://www.w3.org/2000/svg">
<style>
    .a {fill: currentColor;}
</style>
<path d="M85.888 60.608c0 .624-.288.936-.864.936-.576 0-.984-.624-1.224-1.872l-.288-2.592c-.336-1.728-.888-3.192-1.656-4.392-1.008-1.584-2.664-2.592-4.968-3.024-1.488-.288-2.688-.408-3.6-.36-2.256.096-3.624.168-4.104.216v43.416c0 1.728.456 2.808 1.368 3.24.48.24 1.824.384 4.032.432.576.048.864.264.864.648 0 .432-.384.648-1.152.648-.384 0-.72-.024-1.008-.072-2.88-.096-4.92-.144-6.12-.144-1.584 0-3.072.024-4.464.072-1.392.048-3.168.072-5.328.072-1.104 0-1.656-.192-1.656-.576 0-.432 1.032-.672 3.096-.72 1.488 0 2.448-.312 2.88-.936.24-.384.36-1.368.36-2.952V49.52c-4.752.048-7.704.288-8.856.72-3.024 1.104-4.8 4.056-5.328 8.856-.144 1.44-.48 2.16-1.008 2.16-.576 0-.864-.504-.864-1.512 0-.528.024-1.056.072-1.584l.144-1.656c.144-2.208.36-5.112.648-8.712h3.24l14.688.216c1.728.048 4.416.024 8.064-.072l11.952-.216c.096 2.688.408 6.672.936 11.952 0 .144.024.324.072.54.048.216.072.348.072.396zm31.608 6.336c0 .336-.576.528-1.728.576-1.152.048-1.884.144-2.196.288-.312.144-.588.552-.828 1.224l-.504 1.296-.576 1.8c-.672 2.208-1.68 5.496-3.024 9.864-3.792 12.192-6.936 21.648-9.432 28.368-1.536 4.08-3.648 6.12-6.336 6.12-1.152 0-2.1-.336-2.844-1.008-.744-.672-1.116-1.536-1.116-2.592 0-.912.3-1.656.9-2.232.6-.576 1.38-.864 2.34-.864 1.296 0 2.232.528 2.808 1.584.432.816.792 1.224 1.08 1.224.432 0 1.104-1.176 2.016-3.528 1.344-3.504 2.4-6.648 3.168-9.432-3.552-9.312-6.576-17.448-9.072-24.408-1.728-4.752-2.688-7.152-2.88-7.2-.288-.24-1.068-.36-2.34-.36-1.272 0-1.908-.24-1.908-.72 0-.384.312-.576.936-.576.528 0 1.344.036 2.448.108 1.104.072 1.944.108 2.52.108h1.296c1.008-.048 2.4-.096 4.176-.144l3.672-.072c.528 0 .792.192.792.576 0 .336-.888.528-2.664.576-1.488.048-2.232.288-2.232.72 0 .384.48 1.872 1.44 4.464.384 1.104.792 2.256 1.224 3.456l1.224 3.6c.336 1.056 1.224 3.456 2.664 7.2a82.1 82.1 0 0 1 1.584 4.176c4.608-14.448 6.912-22.032 6.912-22.752 0-.432-.18-.696-.54-.792-.36-.096-1.38-.144-3.06-.144-.48 0-.72-.192-.72-.576 0-.336.288-.504.864-.504.24 0 .432.024.576.072a71.16 71.16 0 0 0 4.032.144h2.016c.864 0 1.428-.024 1.692-.072.264-.048.588-.072.972-.072.432 0 .648.168.648.504zm31.32 14.904c0 4.8-1.356 8.808-4.068 12.024-2.712 3.216-6.084 4.824-10.116 4.824-3.168 0-5.616-1.152-7.344-3.456v16.776c0 1.056.036 1.68.108 1.872.072.192.3.36.684.504.72.144 2.112.216 4.176.216.576 0 .864.216.864.648 0 .336-.312.504-.936.504h-3.024a28.659 28.659 0 0 0-1.872-.072c-.288 0-1.08.024-2.376.072h-6.84c-1.392 0-2.088-.168-2.088-.504 0-.432.288-.648.864-.648h2.16c1.392 0 2.136-.312 2.232-.936.048-.288.072-2.496.072-6.624V71.192c0-1.344-.648-1.968-1.944-1.872-1.92-.096-2.928-.144-3.024-.144-.432 0-.648-.168-.648-.504 0-.432.528-.648 1.584-.648 2.64.048 5.04-.576 7.2-1.872.624-.384 1.104-.576 1.44-.576.384 0 .636.18.756.54.12.36.204 1.452.252 3.276 1.776-2.544 4.32-3.816 7.632-3.816 4.176 0 7.596 1.524 10.26 4.572 2.664 3.048 3.996 6.948 3.996 11.7zm-6.408.072c0-3.744-.576-6.936-1.728-9.576-1.536-3.648-3.912-5.472-7.128-5.472-1.68 0-3.12.588-4.32 1.764-1.2 1.176-1.848 2.604-1.944 4.284-.096 2.112-.072 6.552.072 13.32.048 3.408.12 5.46.216 6.156.096.696.408 1.404.936 2.124 1.392 1.968 3.192 2.952 5.4 2.952 2.496 0 4.368-1.056 5.616-3.168 1.92-3.216 2.88-7.344 2.88-12.384zm37.728 8.064c0 .48-.372 1.332-1.116 2.556-.744 1.224-1.5 2.22-2.268 2.988-2.064 2.112-4.824 3.168-8.28 3.168-4.32 0-7.932-1.56-10.836-4.68-2.904-3.12-4.356-6.984-4.356-11.592 0-4.8 1.38-8.808 4.14-12.024 2.76-3.216 6.204-4.824 10.332-4.824 3.408 0 6.264.996 8.568 2.988 2.304 1.992 3.528 4.548 3.672 7.668-1.536.24-3.576.336-6.12.288l-5.04-.072c-.336 0-3.216.072-8.64.216a30.31 30.31 0 0 0-.36 4.536c0 4.848.924 8.58 2.772 11.196 1.848 2.616 4.452 3.924 7.812 3.924 1.92 0 3.456-.432 4.608-1.296 1.152-.864 2.4-2.52 3.744-4.968.192-.384.456-.576.792-.576.384 0 .576.168.576.504zm-6.264-14.688c-.192-5.76-2.256-8.64-6.192-8.64-3.888 0-6.312 2.88-7.272 8.64h13.464zm45.72 13.392c0 2.784-1.02 5.148-3.06 7.092s-4.476 2.916-7.308 2.916c-1.632 0-3.624-.576-5.976-1.728-.624-.336-1.176-.504-1.656-.504-.672 0-1.176.456-1.512 1.368-.192.576-.456.864-.792.864s-.504-.192-.504-.576c0-.24.024-.528.072-.864.144-.96.216-2.376.216-4.248 0-.144-.024-.72-.072-1.728a53.018 53.018 0 0 1-.072-2.016v-.792c0-.528.168-.792.504-.792.384 0 .6.264.648.792.288 2.208.912 3.936 1.872 5.184 1.92 2.496 4.488 3.744 7.704 3.744 1.728 0 3.12-.504 4.176-1.512s1.584-2.352 1.584-4.032c0-1.872-.6-3.36-1.8-4.464-.672-.624-1.284-1.068-1.836-1.332s-2.172-.9-4.86-1.908c-5.328-2.016-7.992-5.04-7.992-9.072 0-2.688.912-4.944 2.736-6.768 1.824-1.824 4.08-2.736 6.768-2.736.96 0 2.4.288 4.32.864.48.144.912.216 1.296.216 1.008 0 1.632-.48 1.872-1.44.144-.48.36-.72.648-.72.336 0 .504.192.504.576 0 .048-.024.192-.072.432l-.072 3.024c-.048 1.152.072 3 .36 5.544v.144c0 .384-.192.576-.576.576-.288 0-.648-.72-1.08-2.16-.528-1.728-1.452-3.12-2.772-4.176-1.32-1.056-2.844-1.584-4.572-1.584-1.632 0-2.976.504-4.032 1.512s-1.584 2.28-1.584 3.816c0 2.4 1.608 4.224 4.824 5.472 4.992 1.968 8.16 3.6 9.504 4.896 1.728 1.68 2.592 3.72 2.592 6.12zm34.272-6.408c0 4.656-1.416 8.556-4.248 11.7-2.832 3.144-6.36 4.716-10.584 4.716-4.368 0-8.016-1.572-10.944-4.716-2.928-3.144-4.392-7.044-4.392-11.7 0-4.8 1.428-8.784 4.284-11.952 2.856-3.168 6.42-4.752 10.692-4.752 4.32 0 7.932 1.596 10.836 4.788s4.356 7.164 4.356 11.916zm-6.552-.072c0-5.28-.816-9.384-2.448-12.312-1.2-2.16-3.216-3.24-6.048-3.24-2.688 0-4.788 1.38-6.3 4.14-1.512 2.76-2.268 6.588-2.268 11.484 0 4.848.804 8.628 2.412 11.34 1.608 2.712 3.852 4.068 6.732 4.068 2.208 0 3.84-.84 4.896-2.52 2.016-3.168 3.024-7.488 3.024-12.96zM306.64 97.4c0 .384-.408.576-1.224.576-.096 0-.612-.024-1.548-.072a77.682 77.682 0 0 0-3.78-.072c-.144 0-2.688.048-7.632.144-.624 0-.936-.168-.936-.504 0-.384.264-.576.792-.576h.576l1.8-.072c.72-.048 1.14-.216 1.26-.504.12-.288.18-1.296.18-3.024V75.44c0-2.784-.372-4.764-1.116-5.94-.744-1.176-2.004-1.764-3.78-1.764-1.248 0-2.412.372-3.492 1.116-1.08.744-1.836 1.692-2.268 2.844-.192.72-.288 3.384-.288 7.992v13.608c0 1.584.024 2.496.072 2.736.144.576.576.864 1.296.864h2.088c.624 0 .936.192.936.576 0 .336-.36.504-1.08.504h-.504c-.48-.096-2.112-.144-4.896-.144-.96 0-2.244.024-3.852.072-1.608.048-2.58.072-2.916.072h-.792c-.576 0-.864-.192-.864-.576 0-.24.144-.384.432-.432.288-.048 1.248-.072 2.88-.072.768-.048 1.176-.288 1.224-.72l.072-1.008V75.08c0-2.784-.348-4.704-1.044-5.76-.696-1.056-1.932-1.584-3.708-1.584-1.776 0-3.252.552-4.428 1.656-1.176 1.104-1.764 2.496-1.764 4.176v20.448c0 1.44.108 2.292.324 2.556.216.264.924.396 2.124.396h.576c.288-.048.552-.072.792-.072.528 0 .792.192.792.576 0 .336-.312.504-.936.504h-.72c-1.152-.144-2.952-.192-5.4-.144l-7.056.144c-.672 0-1.008-.192-1.008-.576 0-.336.312-.504.936-.504 1.824 0 2.88-.084 3.168-.252.288-.168.456-.468.504-.9v-18.72c0-3.6-.072-5.712-.216-6.336-.144-.624-.84-.936-2.088-.936h-1.008a12.4 12.4 0 0 1-1.368.072c-.624 0-.936-.168-.936-.504 0-.288.108-.456.324-.504.216-.048.996-.12 2.34-.216 1.104-.048 2.484-.336 4.14-.864 1.656-.528 2.604-.984 2.844-1.368.528-.528.912-.792 1.152-.792.24 0 .384.192.432.576.048.384.096 1.728.144 4.032 1.92-3.072 4.872-4.608 8.856-4.608 4.272 0 6.864 1.608 7.776 4.824 1.872-3.216 4.872-4.824 9-4.824 3.552 0 5.952 1.272 7.2 3.816.672 1.344 1.008 3.576 1.008 6.696v17.784c0 1.632.084 2.532.252 2.7.168.168.924.3 2.268.396l1.296-.072c.528-.048.792.12.792.504zm29.088-7.416c0 .48-.372 1.332-1.116 2.556-.744 1.224-1.5 2.22-2.268 2.988-2.064 2.112-4.824 3.168-8.28 3.168-4.32 0-7.932-1.56-10.836-4.68-2.904-3.12-4.356-6.984-4.356-11.592 0-4.8 1.38-8.808 4.14-12.024 2.76-3.216 6.204-4.824 10.332-4.824 3.408 0 6.264.996 8.568 2.988 2.304 1.992 3.528 4.548 3.672 7.668-1.536.24-3.576.336-6.12.288l-5.04-.072c-.336 0-3.216.072-8.64.216a30.31 30.31 0 0 0-.36 4.536c0 4.848.924 8.58 2.772 11.196 1.848 2.616 4.452 3.924 7.812 3.924 1.92 0 3.456-.432 4.608-1.296 1.152-.864 2.4-2.52 3.744-4.968.192-.384.456-.576.792-.576.384 0 .576.168.576.504zm-6.264-14.688c-.192-5.76-2.256-8.64-6.192-8.64-3.888 0-6.312 2.88-7.272 8.64h13.464zm29.952 18.288c0 .432-.6 1.2-1.8 2.304-2.064 1.872-4.512 2.808-7.344 2.808-2.64 0-4.632-.672-5.976-2.016-.768-.768-1.152-3.024-1.152-6.768V68.456c-.048-.48-.312-.744-.792-.792h-2.736c-1.056 0-1.584-.168-1.584-.504 0-.336.264-.528.792-.576 3.744-.336 6.672-2.16 8.784-5.472.288-.432.648-.648 1.08-.648.336 0 .504.168.504.504v.288c-.048.24-.072.648-.072 1.224 0 2.016.096 3.312.288 3.888.432.096 1.152.144 2.16.144 2.64 0 4.392-.12 5.256-.36.192-.048.36-.072.504-.072.384 0 .576.216.576.648 0 .72-1.944 1.08-5.832 1.08-.672 0-1.656-.024-2.952-.072v13.32c0 6.72.168 10.932.504 12.636.336 1.704 1.44 2.556 3.312 2.556 1.584 0 3.36-.888 5.328-2.664.192-.24.408-.36.648-.36.336 0 .504.12.504.36zm32.76 3.816c0 .384-.408.576-1.224.576-.384 0-.744-.024-1.08-.072-1.68.048-5.424.072-11.232.072h-.792c-.624 0-.936-.192-.936-.576 0-.336.912-.504 2.736-.504 1.104 0 1.74-.132 1.908-.396.168-.264.252-1.164.252-2.7V79.184c0-4.368-.192-7.08-.576-8.136-.816-2.208-2.616-3.312-5.4-3.312-2.304 0-4.176 1.032-5.616 3.096-.48.672-.72 2.16-.72 4.464v18.36c0 1.296.024 2.04.072 2.232.048.48.24.756.576.828.336.072 1.368.132 3.096.18.576 0 .864.192.864.576 0 .336-.24.504-.72.504l-.72-.072-5.688-.072c-3.984-.048-6.192 0-6.624.144h-.72c-.528 0-.792-.168-.792-.504 0-.384.264-.576.792-.576h1.08l1.08-.072c1.104.048 1.68-.288 1.728-1.008V63.488c0-7.68-.12-11.832-.36-12.456-.288-.48-1.464-.744-3.528-.792-1.152 0-1.728-.168-1.728-.504 0-.288.12-.456.36-.504.24-.048 1.056-.096 2.448-.144 2.448-.048 4.8-.624 7.056-1.728.192-.096.528-.216 1.008-.36.336.576.504 2.424.504 5.544v17.64c2.112-3.072 4.992-4.608 8.64-4.608 3.84 0 6.576 1.056 8.208 3.168.816 1.056 1.32 2.544 1.512 4.464.096.672.144 2.28.144 4.824v18.144c.048.48 1.296.72 3.744.72.432.096.648.264.648.504zm12.24-44.856c0 2.16-1.08 3.24-3.24 3.24-.912 0-1.68-.3-2.304-.9a2.93 2.93 0 0 1-.936-2.196c0-2.256 1.08-3.384 3.24-3.384s3.24 1.08 3.24 3.24zm5.4 44.856c0 .432-.408.648-1.224.648.048 0-.528-.048-1.728-.144a55.828 55.828 0 0 0-3.6-.144l-7.488.144c-.24.048-.528.072-.864.072-.528 0-.792-.168-.792-.504 0-.48.48-.72 1.44-.72 1.824-.048 2.82-.18 2.988-.396.168-.216.252-1.212.252-2.988l-.072-21.816c-.048-1.2-.108-1.908-.18-2.124-.072-.216-.372-.324-.9-.324l-2.088.072a3.03 3.03 0 0 1-.72.072c-.528 0-.792-.192-.792-.576 0-.336.408-.528 1.224-.576 3.216-.144 5.976-.912 8.28-2.304l.72-.432c.384.72.576 2.04.576 3.96v.72c-.048.576-.072 1.512-.072 2.808v19.656c0 1.92.036 3.048.108 3.384.072.336.324.552.756.648.72.192 1.776.288 3.168.288.672 0 1.008.192 1.008.576zm35.568 0c0 .384-.36.576-1.08.576h-.864c-.864-.096-2.04-.144-3.528-.144-4.704 0-7.488.048-8.352.144h-.504c-.624 0-.936-.168-.936-.504 0-.24.132-.384.396-.432.264-.048 1.188-.096 2.772-.144.912-.048 1.44-.18 1.584-.396.144-.216.216-.996.216-2.34V80.336c0-5.232-.192-8.352-.576-9.36-.816-2.16-2.448-3.24-4.896-3.24-2.4 0-4.416 1.056-6.048 3.168-.48.624-.72 1.488-.72 2.592l.072 22.464c0 .576.504.888 1.512.936l2.16.072c.48 0 .72.168.72.504 0 .336-.288.504-.864.504h-1.152c-1.056-.096-2.736-.144-5.04-.144-.528 0-1.668.024-3.42.072-1.752.048-2.772.072-3.06.072h-.432c-.72 0-1.08-.168-1.08-.504 0-.336.432-.552 1.296-.648h1.8c.72 0 1.152-.168 1.296-.504l.216-1.08V79.544c0-5.472-.048-8.496-.144-9.072-.096-.576-.696-.864-1.8-.864-.336 0-.912.048-1.728.144h-.36c-.96 0-1.44-.168-1.44-.504 0-.432.504-.648 1.512-.648 1.44-.048 3-.312 4.68-.792 1.68-.48 2.856-1.032 3.528-1.656.432-.384.768-.576 1.008-.576.336 0 .504.456.504 1.368V70.4c2.496-3.216 5.712-4.824 9.648-4.824 3.456 0 5.952 1.272 7.488 3.816.864 1.44 1.296 4.176 1.296 8.208v16.416c0 1.536.072 2.376.216 2.52.288.288.984.432 2.088.432.144 0 .408-.024.792-.072h.504c.48 0 .72.168.72.504zm35.712-27.576c0 2.208-.984 3.312-2.952 3.312-.672 0-1.284-.228-1.836-.684-.552-.456-.828-.972-.828-1.548 0-.192.072-.492.216-.9.144-.408.216-.732.216-.972 0-.624-.336-.936-1.008-.936-.576 0-1.128.3-1.656.9-.528.6-.792 1.212-.792 1.836 0 .144.12.96.36 2.448s.36 2.616.36 3.384c0 3.264-1.128 6-3.384 8.208-2.256 2.208-5.064 3.312-8.424 3.312-.864 0-2.448-.36-4.752-1.08-.624-.192-1.032-.288-1.224-.288-1.008 0-1.92.408-2.736 1.224-.816.816-1.224 1.704-1.224 2.664 0 2.496 1.512 3.744 4.536 3.744 1.152 0 3-.216 5.544-.648 1.968-.336 3.768-.504 5.4-.504 2.928 0 5.22.768 6.876 2.304 1.656 1.536 2.484 3.672 2.484 6.408 0 4.128-1.764 7.56-5.292 10.296-3.528 2.736-7.98 4.104-13.356 4.104-3.984 0-7.116-.804-9.396-2.412-2.28-1.608-3.42-3.828-3.42-6.66 0-2.736 1.056-4.8 3.168-6.192 1.056-.672 2.736-1.272 5.04-1.8-3.408-1.344-5.112-3.408-5.112-6.192 0-3.456 2.208-5.856 6.624-7.2-2.88-2.256-4.32-5.232-4.32-8.928 0-3.456 1.104-6.228 3.312-8.316 2.208-2.088 5.112-3.132 8.712-3.132 1.968 0 3.564.264 4.788.792 1.224.528 2.652 1.584 4.284 3.168 1.536-2.256 3.432-3.384 5.688-3.384 2.736 0 4.104 1.224 4.104 3.672zm-13.392 7.128c0-6.96-1.92-10.44-5.76-10.44-3.744 0-5.616 3.24-5.616 9.72 0 7.296 1.992 10.944 5.976 10.944 3.6 0 5.4-3.408 5.4-10.224zm5.544 27.576c0-3.984-2.352-5.976-7.056-5.976-1.344 0-3.324.216-5.94.648-2.616.432-4.572.648-5.868.648-2.448 1.296-3.672 3.576-3.672 6.84 0 2.448.876 4.416 2.628 5.904 1.752 1.488 4.068 2.232 6.948 2.232 3.648 0 6.72-.996 9.216-2.988 2.496-1.992 3.744-4.428 3.744-7.308z" class="a" fill-rule="evenodd"/></svg>
